<svg version="1.1" id="Layer_1" xmlns="http://www.w3.org/2000/svg" xmlns:xlink="http://www.w3.org/1999/xlink" x="0px" y="0px"
	 width="100%" viewBox="0 0 560 560" enable-background="new 0 0 560 560" xml:space="preserve">
<path fill="#000000" opacity="1.000000" stroke="none" 
	d="
M150.562500,471.440216 
	C169.570465,476.364838 188.578583,477.090118 207.512527,475.385773 
	C232.292648,473.155273 256.348083,467.041473 279.878815,458.942169 
	C298.981445,452.367035 315.339722,440.672058 332.633270,430.722473 
	C335.042755,429.336151 337.360565,427.790497 339.544617,425.381256 
	C334.618408,425.381256 329.689758,425.472900 324.767059,425.340942 
	C322.453430,425.278931 319.154022,426.216675 318.898315,422.493073 
	C318.659546,419.015686 321.658722,418.962189 324.174988,418.612183 
	C330.111420,417.786469 336.023193,416.862762 341.744720,414.948517 
	C357.072296,409.820343 365.154297,395.767059 361.955231,379.991028 
	C358.712189,363.998077 351.181641,349.586761 345.353027,334.554199 
	C340.899933,323.069336 335.839264,311.820984 331.311920,300.363495 
	C329.886047,296.755005 327.983429,295.216888 323.957764,295.234344 
	C292.793701,295.369293 261.628479,295.357574 230.464401,295.213440 
	C226.348785,295.194427 224.135773,296.421326 222.772812,300.479156 
	C219.911469,308.997955 216.707596,317.416443 213.262970,325.717834 
	C211.701004,329.482117 212.603455,331.790649 215.938034,333.495667 
	C226.570099,338.931854 237.013428,338.660675 247.262115,332.403778 
	C249.126633,331.265472 250.622787,329.171967 253.400009,329.550537 
	C248.665176,339.833893 232.363724,342.539886 209.214722,336.951843 
	C205.848480,343.870941 203.052429,351.104889 200.791275,358.564209 
	C200.142136,360.705627 201.376770,361.671051 203.039948,362.352295 
	C241.023529,377.909424 288.407928,367.861176 307.283295,321.369995 
	C309.819000,315.124390 311.182739,308.546478 312.840027,301.857971 
	C316.642426,307.778900 317.756195,314.418976 318.043640,321.070435 
	C319.719177,359.843536 289.767822,395.660370 251.346527,401.329895 
	C233.491486,403.964569 216.171127,402.348938 198.398590,395.111328 
	C200.303177,401.750580 203.646667,406.254730 208.160873,409.898529 
	C213.163391,413.936462 218.885254,416.574646 225.251389,417.729797 
	C227.054489,418.057007 228.868713,418.358826 230.639114,418.820648 
	C232.492844,419.304260 234.241791,420.172424 234.052628,422.460419 
	C233.861511,424.771729 232.047745,425.276855 230.076492,425.374237 
	C229.910049,425.382446 229.743332,425.393494 229.576874,425.391724 
	C204.596283,425.126282 179.619995,426.277679 154.636520,425.577667 
	C146.975815,425.362976 139.306656,425.462158 131.641968,425.368896 
	C129.485809,425.342651 126.954422,425.518524 126.825714,422.402740 
	C126.705452,419.491608 129.000854,419.006866 131.239426,418.706573 
	C152.733047,415.823303 164.551956,400.809631 174.861511,383.913300 
	C176.502945,381.223114 174.228729,379.996643 172.692398,378.588074 
	C162.749222,369.471375 154.712265,358.946442 149.039841,346.671539 
	C139.088318,325.136810 135.866364,302.884277 141.649475,279.584900 
	C146.231537,261.124451 150.910110,242.761581 161.892303,226.727753 
	C175.505341,206.852936 192.416779,191.093597 215.565338,183.025223 
	C227.407150,178.897797 239.641312,177.504868 251.951752,180.120026 
	C256.658905,181.119949 258.107635,179.273529 259.536896,175.569244 
	C268.349030,152.729874 277.344543,129.961182 286.140076,107.115456 
	C287.737274,102.966835 289.272858,99.893791 294.718872,99.833344 
	C300.443817,99.769806 303.834595,101.242203 306.155212,106.916954 
	C321.661865,144.835876 337.484528,182.625595 353.219025,220.451248 
	C359.615570,235.828491 366.031647,251.197662 372.493805,266.547363 
	C373.046234,267.859619 373.125122,269.556976 375.360840,270.482574 
	C382.050873,265.957642 387.908813,260.154633 392.494568,253.154221 
	C400.302094,241.235611 406.657776,228.637466 409.133057,214.418121 
	C415.612885,177.194412 393.216583,131.829041 354.833618,122.042221 
	C353.391357,121.674469 351.906616,121.471252 350.439423,121.203598 
	C345.495636,120.301659 344.591858,118.557220 346.973114,114.287758 
	C349.947998,108.953957 348.745392,103.902336 345.689331,99.211739 
	C339.248047,89.325264 329.481964,85.194084 318.176025,84.382095 
	C305.102081,83.443123 293.609955,87.614273 283.517120,95.915863 
	C278.058472,100.405739 278.133453,100.231079 274.038727,94.558647 
	C270.232544,89.285912 264.596649,87.964172 258.485016,88.585304 
	C248.004913,89.650421 239.448059,94.652138 232.795288,102.580429 
	C220.929810,116.720825 217.604477,133.318283 219.727554,151.293365 
	C219.931839,153.022903 220.857452,154.824753 218.633224,156.826309 
	C216.070328,151.191025 215.838455,145.417145 216.042160,139.851212 
	C217.278656,106.068863 241.082794,75.028465 273.659515,65.931122 
	C316.014221,54.103188 352.642700,65.555267 381.351654,97.919434 
	C415.623291,136.554550 423.359802,181.870331 408.305817,230.958511 
	C403.220978,247.539169 393.477844,261.470825 379.693481,272.247955 
	C376.951202,274.391968 376.446075,276.284912 377.780060,279.432343 
	C390.972046,310.557495 403.306885,342.043579 417.104340,372.913696 
	C419.994232,379.379578 420.146667,379.413757 426.566376,376.402985 
	C438.188293,370.952515 449.808441,365.473969 462.579193,363.242401 
	C475.985077,360.899841 488.479584,362.803711 499.103485,372.064301 
	C513.980713,385.032318 512.828552,405.079498 496.488464,416.945221 
	C488.732819,422.577118 480.102295,425.481689 470.374878,425.454956 
	C432.377594,425.350403 394.379547,425.496643 356.382538,425.354370 
	C350.832428,425.333588 346.089722,426.665161 341.362030,429.554474 
	C310.049042,448.691315 278.018433,466.455231 243.253204,478.690277 
	C218.327911,487.462341 192.667236,491.841858 166.201782,490.200897 
	C151.709793,489.302338 137.489929,486.647949 123.196831,481.034912 
	C131.888367,488.520447 158.245224,493.881592 182.964005,493.976959 
	C203.581284,494.056488 223.424530,489.766174 243.115692,483.964966 
	C239.516739,488.166840 234.384628,489.338776 229.775696,491.236511 
	C192.831909,506.448456 155.247604,510.196747 117.448776,495.000427 
	C88.157341,483.224365 66.704475,463.308899 58.391785,431.729492 
	C50.897064,403.257568 62.924812,370.981628 85.918434,357.065033 
	C90.210777,354.467163 94.655243,351.922913 99.858833,351.844025 
	C100.279770,353.087189 99.802254,353.595978 99.269913,353.987244 
	C75.567932,371.407501 70.965324,415.516113 97.130409,441.763641 
	C112.038116,456.718323 130.027954,465.886536 150.562500,471.440216 
M214.544891,188.108002 
	C167.488647,205.315704 136.233032,263.581451 148.061508,312.225494 
	C152.906387,332.149780 162.571793,349.343323 177.956268,363.082275 
	C179.556961,364.511780 181.001358,367.241119 185.485703,365.296570 
	C169.768753,351.362823 158.840164,335.058655 153.995132,315.048279 
	C163.255890,330.211517 173.297043,344.576630 189.247482,354.527618 
	C192.223618,347.088776 194.844330,340.268707 197.694824,333.546051 
	C198.836609,330.853241 198.345306,329.066498 196.329865,326.927460 
	C176.813507,306.214203 174.542633,274.457672 190.469528,250.903183 
	C201.785034,234.168533 217.878799,225.656311 237.378876,222.876770 
	C240.374542,222.449768 241.690659,221.128250 242.670090,218.571915 
	C246.183640,209.401428 249.895081,200.306564 253.389755,191.129044 
	C255.339081,186.009811 254.744843,184.995026 249.260086,184.450821 
	C237.725967,183.306396 226.294556,183.613495 214.544891,188.108002 
M300.418274,246.068649 
	C294.018463,241.294006 287.416107,236.848480 280.229248,233.310135 
	C271.974213,229.245911 263.368774,228.648026 254.439209,230.319519 
	C251.195450,230.926697 249.047974,232.454254 247.856995,235.612213 
	C242.400070,250.081665 236.881943,264.528351 231.305527,278.952209 
	C229.758804,282.953003 231.144760,284.667664 235.215637,284.564087 
	C239.371567,284.458374 243.524887,284.132782 247.679825,284.124054 
	C270.812012,284.075439 293.944397,284.115540 317.076630,284.076111 
	C324.049500,284.064209 324.069336,283.628052 321.942474,276.887329 
	C318.051880,264.556580 310.581848,254.826492 300.418274,246.068649 
M479.400238,417.916687 
	C482.989197,417.646637 486.139221,416.027130 489.222839,414.430664 
	C503.797943,406.885010 508.091675,390.912231 498.595276,379.419647 
	C491.111511,370.362732 481.022339,366.919983 469.673798,367.638672 
	C453.191193,368.682495 438.660492,376.020782 424.027924,382.854828 
	C423.411713,383.142639 422.774353,383.385193 422.069275,383.681458 
	C424.088806,387.288910 425.631073,390.026154 427.157074,392.772400 
	C438.241791,412.720825 457.613251,419.637115 479.400238,417.916687 
M292.317474,208.219620 
	C285.690063,201.603241 278.338623,195.949539 269.994904,191.661392 
	C268.350281,190.816147 266.177795,189.096268 264.936035,191.965149 
	C260.734436,201.672211 256.896545,211.524200 253.472443,222.612534 
	C275.079254,224.979889 293.624725,233.093796 309.241333,247.912399 
	C305.727661,237.271881 301.702148,227.294464 297.610382,217.344315 
	C296.356140,214.294388 295.476685,211.007935 292.317474,208.219620 
M337.639221,267.903839 
	C343.687744,281.777405 349.736450,295.650879 355.784607,309.524597 
	C356.757050,311.755249 357.930176,313.945953 360.856689,313.219788 
	C363.498810,312.564209 365.193451,310.612061 365.395325,307.878326 
	C365.485413,306.658020 364.820465,305.316956 364.286865,304.125366 
	C357.352264,288.638855 350.406860,273.157043 343.400208,257.703064 
	C341.264099,252.991669 338.568665,248.583710 335.362640,244.517853 
	C334.358978,243.244965 333.156311,241.576813 331.258331,242.751007 
	C329.736267,243.692673 330.360260,245.417419 330.662354,246.867493 
	C332.126587,253.896362 334.439850,260.647400 337.639221,267.903839 
M212.687302,294.832489 
	C215.276688,288.380859 217.909607,281.946289 220.443405,275.472900 
	C223.052841,268.806305 220.567627,265.587219 213.335312,266.350372 
	C208.153214,266.897247 204.391785,269.478790 202.425491,274.491974 
	C199.681381,281.488190 203.028839,291.767517 209.348862,295.573578 
	C210.438461,296.229767 211.425293,296.657623 212.687302,294.832489 
M269.948975,178.341782 
	C267.381958,182.710709 268.183075,185.665497 273.249695,187.470093 
	C275.874664,188.405060 278.184418,190.214722 280.655731,191.594940 
	C282.456451,192.600616 283.967896,194.505997 287.033020,193.416351 
	C285.015991,184.821808 281.308075,176.902237 277.531342,169.062271 
	C276.396393,166.706268 274.335205,167.745178 273.385162,169.747391 
	C272.174622,172.298569 271.258026,174.989227 269.948975,178.341782 
M372.022095,325.377319 
	C369.363159,326.402466 368.739746,328.477600 369.235596,331.018860 
	C369.637665,333.079376 371.224182,334.054077 373.085327,334.447571 
	C375.516113,334.961456 377.179749,333.548920 378.589508,331.805695 
	C379.486389,330.696716 379.775299,329.500916 379.068451,328.120422 
	C377.719849,325.486664 375.476349,324.899353 372.022095,325.377319 
M211.237427,381.253082 
	C216.631714,382.490906 221.995743,383.946259 227.620361,383.598572 
	C217.045227,381.899506 207.194046,377.876587 197.054123,374.462860 
	C200.676666,378.416962 205.705917,379.452118 211.237427,381.253082 
M327.163513,232.619888 
	C329.989716,231.801849 331.281158,229.932526 330.581726,227.058807 
	C330.072754,224.967621 328.511505,223.472900 326.358765,223.607269 
	C324.029388,223.752701 322.407257,225.382126 322.227905,227.776001 
	C322.013733,230.634583 323.374878,232.473495 327.163513,232.619888 
M383.609497,346.406372 
	C383.453247,344.208160 382.495422,342.929352 380.184021,343.940155 
	C378.934235,344.486725 378.025330,345.745789 378.978699,347.096405 
	C380.358795,349.051544 382.014923,349.487671 383.609497,346.406372 
M229.796432,246.973343 
	C228.589340,249.465408 226.573151,251.728439 227.141846,255.708450 
	C229.777588,252.479309 230.377487,249.353622 231.489624,246.475296 
	C231.656586,246.043213 231.582306,245.368805 230.775986,245.774216 
	C230.502731,245.911621 230.335266,246.259415 229.796432,246.973343 
z"/>
</svg>